<svg width="313.66249999999997px" height="122px" xmlns="http://www.w3.org/2000/svg" viewBox="93.16875000000002 14 313.66249999999997 122" style="background: rgba(0, 0, 0, 0);" preserveAspectRatio="xMidYMid"><defs><filter id="editing-metal-beveled"><feGaussianBlur stdDeviation="4" in="SourceAlpha" result="blur"></feGaussianBlur><feSpecularLighting surfaceScale="5" specularConstant="0.8" specularExponent="7.5" lighting-color="#fff" in="blur" result="specular"><fePointLight x="-250" y="-50" z="300"></fePointLight></feSpecularLighting><feComposite operator="in" in="specular" in2="SourceAlpha" result="comp"></feComposite><feComposite in="SourceGraphic" in2="comp" operator="arithmetic" k1="0" k2="1" k3="1" k4="0"></feComposite></filter></defs><g filter="url(#editing-metal-beveled)"><g transform="translate(144.3691005706787, 96.76000022888184)"><path d="M29.18 1.28L29.18 1.28L29.18 1.28Q20.99 1.28 20.22-10.37L20.22-10.37L9.22-10.37L9.22-10.37Q7.94-7.42 7.04-4.86L7.04-4.86L5.38 0L-3.58 0L16.58-42.24L30.34-42.24L33.02-11.14L33.02-11.14Q33.66-4.42 36.22-2.43L36.22-2.43L36.22-2.43Q34.37 1.28 29.18 1.28ZM14.72-23.17L11.20-15.04L20.03-15.04L19.26-31.49L19.26-33.22L14.72-23.17ZM59.97-17.98L59.97-17.98L59.97-17.98Q62.27-22.08 62.27-26.24L62.27-26.24L62.27-26.24Q62.27-28.99 60.29-28.99L60.29-28.99L60.29-28.99Q58.75-28.99 57.15-26.37L57.15-26.37L57.15-26.37Q55.49-23.74 54.98-20.35L54.98-20.35L51.65 0L38.40 1.28L44.93-32.64L55.49-33.92L54.34-27.46L54.34-27.46Q57.47-33.92 64.51-33.92L64.51-33.92L64.51-33.92Q68.22-33.92 70.24-32L70.24-32L70.24-32Q72.26-30.08 72.26-26.14L72.26-26.14L72.26-26.14Q72.26-22.21 69.66-19.71L69.66-19.71L69.66-19.71Q67.07-17.22 62.66-17.22L62.66-17.22L62.66-17.22Q60.74-17.22 59.97-17.98ZM92.42-22.46L92.42-22.46L92.42-22.46Q93.31-24.83 93.31-26.88L93.31-26.88L93.31-26.88Q93.31-30.66 90.24-30.66L90.24-30.66L90.24-30.66Q88.64-30.66 87.33-29.22L87.33-29.22L87.33-29.22Q86.02-27.78 86.02-25.98L86.02-25.98L86.02-25.98Q86.02-24.70 87.04-23.68L87.04-23.68L87.04-23.68Q88.51-22.27 92.29-19.97L92.29-19.97L92.29-19.97Q96.06-17.66 97.50-15.78L97.50-15.78L97.50-15.78Q98.94-13.89 98.94-11.30L98.94-11.30L98.94-11.30Q98.94-8.70 97.70-6.34L97.70-6.34L97.70-6.34Q96.45-3.97 94.21-2.30L94.21-2.30L94.21-2.30Q89.41 1.28 81.73 1.28L81.73 1.28L81.73 1.28Q77.57 1.28 74.37-0.90L74.37-0.90L74.37-0.90Q71.17-3.01 71.17-5.50L71.17-5.50L71.17-5.50Q71.17-8 72.99-9.47L72.99-9.47L72.99-9.47Q74.82-10.94 77.50-10.94L77.50-10.94L77.50-10.94Q80.19-10.94 81.86-9.92L81.86-9.92L81.86-9.92Q81.02-7.81 81.02-6.40L81.02-6.40L81.02-6.40Q81.02-2.18 84.61-2.18L84.61-2.18L84.61-2.18Q86.14-2.18 87.17-3.14L87.17-3.14L87.17-3.14Q88.19-4.10 88.19-5.76L88.19-5.76L88.19-5.76Q88.19-9.02 82.69-12.48L82.69-12.48L82.69-12.48Q78.21-15.42 77.18-16.58L77.18-16.58L77.18-16.58Q75.46-18.62 75.46-21.18L75.46-21.18L75.46-21.18Q75.46-23.74 76.67-26.18L76.67-26.18L76.67-26.18Q77.89-28.61 80.13-30.34L80.13-30.34L80.13-30.34Q84.80-33.92 92.93-33.92L92.93-33.92L92.93-33.92Q97.09-33.92 99.55-32.26L99.55-32.26L99.55-32.26Q102.02-30.59 102.02-27.78L102.02-27.78L102.02-27.78Q102.02-24.96 100.32-23.36L100.32-23.36L100.32-23.36Q98.62-21.76 95.55-21.76L95.55-21.76L95.55-21.76Q93.44-21.76 92.42-22.46ZM130.30-10.82L130.30-10.82L130.30-10.82Q131.90-9.73 131.90-7.33L131.90-7.33L131.90-7.33Q131.90-4.93 130.69-3.39L130.69-3.39L130.69-3.39Q129.47-1.86 127.49-0.83L127.49-0.83L127.49-0.83Q123.39 1.28 118.98 1.28L118.98 1.28L118.98 1.28Q114.56 1.28 111.97 0.32L111.97 0.32L111.97 0.32Q109.38-0.64 107.65-2.43L107.65-2.43L107.65-2.43Q104.26-5.82 104.26-12.03L104.26-12.03L104.26-12.03Q104.26-21.70 109.50-27.58L109.50-27.58L109.50-27.58Q115.14-33.92 124.93-33.92L124.93-33.92L124.93-33.92Q131.01-33.92 134.02-31.36L134.02-31.36L134.02-31.36Q136.26-29.44 136.26-26.30L136.26-26.30L136.26-26.30Q136.26-15.04 116.80-15.04L116.80-15.04L116.80-15.04Q116.54-13.38 116.54-11.97L116.54-11.97L116.54-11.97Q116.54-9.02 117.86-7.90L117.86-7.90L117.86-7.90Q119.17-6.78 121.60-6.78L121.60-6.78L121.60-6.78Q124.03-6.78 126.62-7.90L126.62-7.90L126.62-7.90Q129.22-9.02 130.30-10.82ZM117.25-17.79L117.25-17.79L117.25-17.79Q121.79-17.79 124.42-20.61L124.42-20.61L124.42-20.61Q127.04-23.30 127.04-27.58L127.04-27.58L127.04-27.58Q127.04-29.06 126.50-29.86L126.50-29.86L126.50-29.86Q125.95-30.66 124.86-30.66L124.86-30.66L124.86-30.66Q123.78-30.66 122.85-30.24L122.85-30.24L122.85-30.24Q121.92-29.82 120.96-28.42L120.96-28.42L120.96-28.42Q118.59-25.22 117.25-17.79ZM165.50 1.28L165.50 1.28L165.50 1.28Q157.76 1.28 157.76-4.74L157.76-4.74L157.76-4.74Q157.82-6.40 158.34-9.22L158.34-9.22L159.49-15.10L159.49-15.10Q161.22-23.42 161.22-25.28L161.22-25.28L161.22-25.28Q161.22-28.99 159.04-28.99L159.04-28.99L159.04-28.99Q155.39-28.99 153.47-19.46L153.47-19.46L149.70 0L136.83 1.28L143.49-32.70L153.98-33.92L152.96-27.65L152.96-27.65Q155.97-33.92 165.18-33.92L165.18-33.92L165.18-33.92Q169.66-33.92 171.55-32.03L171.55-32.03L171.55-32.03Q173.44-30.14 173.44-25.92L173.44-25.92L173.44-25.92Q173.44-21.95 171.39-12.67L171.39-12.67L171.39-12.67Q170.43-8.51 170.43-6.94L170.43-6.94L170.43-6.94Q170.43-5.38 171.30-4.48L171.30-4.48L171.30-4.48Q172.16-3.58 173.44-3.46L173.44-3.46L173.44-3.46Q172.80-1.28 170.59 0L170.59 0L170.59 0Q168.38 1.28 165.50 1.28ZM204.48-10.82L204.48-10.82L204.48-10.82Q206.08-9.73 206.08-7.33L206.08-7.33L206.08-7.33Q206.08-4.93 204.86-3.39L204.86-3.39L204.86-3.39Q203.65-1.86 201.66-0.83L201.66-0.83L201.66-0.83Q197.57 1.28 193.15 1.28L193.15 1.28L193.15 1.28Q188.74 1.28 186.14 0.32L186.14 0.32L186.14 0.32Q183.55-0.64 181.82-2.43L181.82-2.43L181.82-2.43Q178.43-5.82 178.43-12.03L178.43-12.03L178.43-12.03Q178.43-21.70 183.68-27.58L183.68-27.58L183.68-27.58Q189.31-33.92 199.10-33.92L199.10-33.92L199.10-33.92Q205.18-33.92 208.19-31.36L208.19-31.36L208.19-31.36Q210.43-29.44 210.43-26.30L210.43-26.30L210.43-26.30Q210.43-15.04 190.98-15.04L190.98-15.04L190.98-15.04Q190.72-13.38 190.72-11.97L190.72-11.97L190.72-11.97Q190.72-9.02 192.03-7.90L192.03-7.90L192.03-7.90Q193.34-6.78 195.78-6.78L195.78-6.78L195.78-6.78Q198.21-6.78 200.80-7.90L200.80-7.90L200.80-7.90Q203.39-9.02 204.48-10.82ZM191.42-17.79L191.42-17.79L191.42-17.79Q195.97-17.79 198.59-20.61L198.59-20.61L198.59-20.61Q201.22-23.30 201.22-27.58L201.22-27.58L201.22-27.58Q201.22-29.06 200.67-29.86L200.67-29.86L200.67-29.86Q200.13-30.66 199.04-30.66L199.04-30.66L199.04-30.66Q197.95-30.66 197.02-30.24L197.02-30.24L197.02-30.24Q196.10-29.82 195.14-28.42L195.14-28.42L195.14-28.42Q192.77-25.22 191.42-17.79Z" fill="#444"></path></g></g><style>text {
  font-size: 64px;
  font-family: Arial Black;
  dominant-baseline: central;
  text-anchor: middle;
}</style></svg>